<?xml version="1.0" encoding="utf-8"?>
<!-- Svg Vector Icons : http://www.onlinewebfonts.com/icon -->
<!DOCTYPE svg PUBLIC "-//W3C//DTD SVG 1.1//EN" "http://www.w3.org/Graphics/SVG/1.1/DTD/svg11.dtd">
<svg version="1.1" xmlns="http://www.w3.org/2000/svg" xmlns:xlink="http://www.w3.org/1999/xlink" x="0px" y="0px" viewBox="0 0 256 256" enable-background="new 0 0 256 256" xml:space="preserve">
<metadata> Svg Vector Icons : http://www.onlinewebfonts.com/icon </metadata>
<g><g><path fill="#000000" d="M244.4,108.9c-3.9,1.4-10.5,6.9-20,16.4c-8.8,8.6-16.6,16.6-23.5,24c-2.1,2.3-5.3,5.9-9.5,10.8c-4.2,5.1-7.4,8.7-9.5,10.8s-4.7,4.6-7.9,7.7c-3.3,3.2-5.5,5.3-6.6,6.3c-3.7,4.1-7.4,7.5-11.1,10.3c-1.7,1.4-3.4,2.5-5,3.2c-1.7,0.7-3.4,1.1-5,1.1c-3.2,0.2-6.1-1.2-8.7-4c-2.6-2.6-4.3-6.1-5-10.3c-0.7-4.1-0.9-7.8-0.8-11.3c0.4-3.7,0.9-7,1.6-10c0.9-3.2-0.2-4.2-3.2-3.2c-0.7,0.2-1.7,0.6-2.9,1.3l-3.7,2.6c-1.2,1.1-3,2.4-5.3,3.9c-2.3,1.7-4.6,3.3-6.9,4.7c-2.8,1.9-6.3,4.2-10.5,6.9c-4.2,2.6-8.7,5.4-13.4,8.2c-4.7,3-9.1,5.5-12.9,7.7c-4.1,2.1-6.7,3.3-8.2,3.7c-2.1,0.5-3.6,0.9-4.5,1.1c-0.9,0.2-2.4,0.3-4.5,0.3c-2.3,0-4.1-0.7-5.3-2.1c-1.4-1.4-2.5-3.4-3.2-6.1c-0.7-3.5,0.9-8.3,4.7-14.5c3.7-6.2,7.8-12.2,12.1-18.2c4.2-5.9,8.8-12.5,13.7-19.8l7.9-11.1c2.5-3.7,5-7.5,7.7-11.3c2.6-4.1,5-7.8,7.1-11.3c2.1-3.3,3.9-6.4,5.3-9.2c2.3-4.2,2.7-6.2,1.3-6.1c-0.5,0.2-1.2,0.5-2.1,1.1c-1.1,0.7-7,7.7-17.9,20.8C78,126.4,67,140,55.9,153.7c-11.1,13.7-17,20.9-17.7,21.6c-2.5,2.8-4.6,3.3-6.6,1.6c-1.6-1.4-1.4-3.6,0.5-6.6c3.2-4.7,15.5-21.1,36.9-49.1c21.3-27.8,33.6-43.4,36.9-46.7c1.2-1.2,3.1-3.3,5.5-6.1c2.5-2.6,4.5-4.7,6.1-6.3c1.4-1.6,3.2-3.1,5.3-4.5c2.1-1.4,4.1-2.1,5.8-2.1c5.3,0,8.3,1.6,9.2,4.7c0.7,2.6,0.5,5.6-0.5,9c-1.1,3.5-4.1,10.1-9,19.8c-1.2,2.3-3.6,6.2-7.1,11.6c-3.5,5.6-7.1,11.2-10.8,16.9l-11.3,16.9c-4.1,5.9-6.6,9.9-7.7,11.6c-6.2,9.9-11.3,17.6-15.6,23.2c-4.4,5.8-7.5,9.7-9.2,11.6c-1.6,1.9-1.9,2.9-0.8,2.9c0.7,0,1.7-0.3,3.2-0.8c1.4-0.5,3.2-1.2,5.3-2.1c4.2-2.1,10.7-6.1,19.5-11.9c8.8-5.8,17-11.6,24.8-17.4c7.5-5.8,13.8-9.8,18.7-11.9c4.7-2.1,8-1.9,9.8,0.8c1.6,2.8,2.1,6.4,1.6,10.8c-0.7,4.6-1.7,9.1-2.9,13.4l-0.3,1.6l-0.3,1.3l-0.3,1.6l-0.3,1.6l-0.5,1.1v1.3v1.1l-0.3,1.1c0,1.4,0.4,2.5,1.1,3.4c0.5,1.1,1.3,1.9,2.4,2.4c1.1,0.5,2.3,0.4,3.7-0.3c1.4-0.7,3.1-2,5-4l3.2-3.2c1.2-1.2,2.6-2.6,4.2-4.2c1.4-1.6,3-3.3,4.7-5.3c1.6-1.7,3.4-3.7,5.5-5.8c12.3-13.2,21.1-22.6,26.4-28.2c9.3-10.5,17.4-18.6,24.3-24c6.7-5.3,12.4-8.8,17.1-10.5c-7-25.2-21-45.7-41.9-61.7c-21.1-16-44.9-24-71.5-24c-16,0-31.3,3.1-45.9,9.2s-27.2,14.5-37.7,25S25.7,67.4,19.5,82c-6.3,14.6-9.5,29.9-9.5,45.9s3.2,31.3,9.5,45.9c6.2,14.6,14.5,27.2,25,37.7s23.1,18.9,37.7,25c14.6,6.3,29.9,9.5,45.9,9.5s31.3-3.2,45.9-9.5c14.4-6.2,26.9-14.5,37.5-25s19-23.1,25.3-37.7c6.2-14.6,9.2-29.9,9.2-45.9C246,121.5,245.5,115.2,244.4,108.9L244.4,108.9z"/></g></g>
</svg>